<?xml version="1.0" encoding="UTF-8" standalone="no"?>
<!-- Created with Inkscape (http://www.inkscape.org/) -->

<svg
   version="1.1"
   id="svg1"
   width="1365.3333"
   height="1365.3333"
   viewBox="0 0 1365.3333 1365.3333"
   sodipodi:docname="as.ai"
   xmlns:inkscape="http://www.inkscape.org/namespaces/inkscape"
   xmlns:sodipodi="http://sodipodi.sourceforge.net/DTD/sodipodi-0.dtd"
   xmlns="http://www.w3.org/2000/svg"
   xmlns:svg="http://www.w3.org/2000/svg">
  <defs
     id="defs1">
    <clipPath
       clipPathUnits="userSpaceOnUse"
       id="clipPath3">
      <path
         d="M 0,1024 H 1024 V 0 H 0 Z"
         transform="translate(-494.32001,-726.98002)"
         id="path3" />
    </clipPath>
    <clipPath
       clipPathUnits="userSpaceOnUse"
       id="clipPath5">
      <path
         d="M 0,1024 H 1024 V 0 H 0 Z"
         transform="translate(-582.60001,-695.82002)"
         id="path5" />
    </clipPath>
    <clipPath
       clipPathUnits="userSpaceOnUse"
       id="clipPath7">
      <path
         d="M 0,1024 H 1024 V 0 H 0 Z"
         transform="translate(-650.48002,-671.30001)"
         id="path7" />
    </clipPath>
    <clipPath
       clipPathUnits="userSpaceOnUse"
       id="clipPath9">
      <path
         d="M 0,1024 H 1024 V 0 H 0 Z"
         transform="translate(-708.30002,-628.12002)"
         id="path9" />
    </clipPath>
    <clipPath
       clipPathUnits="userSpaceOnUse"
       id="clipPath11">
      <path
         d="M 0,1024 H 1024 V 0 H 0 Z"
         transform="translate(-607.20002,-518.18001)"
         id="path11" />
    </clipPath>
    <clipPath
       clipPathUnits="userSpaceOnUse"
       id="clipPath13">
      <path
         d="M 0,1024 H 1024 V 0 H 0 Z"
         transform="translate(-427.49001,-560.19002)"
         id="path13" />
    </clipPath>
    <clipPath
       clipPathUnits="userSpaceOnUse"
       id="clipPath15">
      <path
         d="M 0,1024 H 1024 V 0 H 0 Z"
         transform="translate(-433.09001,-394.75001)"
         id="path15" />
    </clipPath>
    <clipPath
       clipPathUnits="userSpaceOnUse"
       id="clipPath17">
      <path
         d="M 0,1024 H 1024 V 0 H 0 Z"
         transform="translate(-497.44001,-395.35001)"
         id="path17" />
    </clipPath>
    <clipPath
       clipPathUnits="userSpaceOnUse"
       id="clipPath19">
      <path
         d="M 0,1024 H 1024 V 0 H 0 Z"
         transform="translate(-364.67001,-385.34001)"
         id="path19" />
    </clipPath>
    <clipPath
       clipPathUnits="userSpaceOnUse"
       id="clipPath21">
      <path
         d="M 0,1024 H 1024 V 0 H 0 Z"
         transform="translate(-384.30001,-388.04001)"
         id="path21" />
    </clipPath>
    <clipPath
       clipPathUnits="userSpaceOnUse"
       id="clipPath23">
      <path
         d="M 0,1024 H 1024 V 0 H 0 Z"
         transform="translate(-407.47001,-384.97001)"
         id="path23" />
    </clipPath>
    <clipPath
       clipPathUnits="userSpaceOnUse"
       id="clipPath25">
      <path
         d="M 0,1024 H 1024 V 0 H 0 Z"
         transform="translate(-448.23001,-387.88001)"
         id="path25" />
    </clipPath>
    <clipPath
       clipPathUnits="userSpaceOnUse"
       id="clipPath27">
      <path
         d="M 0,1024 H 1024 V 0 H 0 Z"
         transform="translate(-473.27001,-386.72001)"
         id="path27" />
    </clipPath>
    <clipPath
       clipPathUnits="userSpaceOnUse"
       id="clipPath29">
      <path
         d="M 0,1024 H 1024 V 0 H 0 Z"
         transform="translate(-496.91001,-387.91001)"
         id="path29" />
    </clipPath>
    <clipPath
       clipPathUnits="userSpaceOnUse"
       id="clipPath31">
      <path
         d="M 0,1024 H 1024 V 0 H 0 Z"
         transform="translate(-510.60001,-388.06001)"
         id="path31" />
    </clipPath>
    <clipPath
       clipPathUnits="userSpaceOnUse"
       id="clipPath33">
      <path
         d="M 0,1024 H 1024 V 0 H 0 Z"
         transform="translate(-537.42001,-385.47001)"
         id="path33" />
    </clipPath>
    <clipPath
       clipPathUnits="userSpaceOnUse"
       id="clipPath35">
      <path
         d="M 0,1024 H 1024 V 0 H 0 Z"
         transform="translate(-578.31001,-385.96001)"
         id="path35" />
    </clipPath>
    <clipPath
       clipPathUnits="userSpaceOnUse"
       id="clipPath37">
      <path
         d="M 0,1024 H 1024 V 0 H 0 Z"
         transform="translate(-605.50001,-379.45001)"
         id="path37" />
    </clipPath>
    <clipPath
       clipPathUnits="userSpaceOnUse"
       id="clipPath39">
      <path
         d="M 0,1024 H 1024 V 0 H 0 Z"
         transform="translate(-625.78001,-386.03001)"
         id="path39" />
    </clipPath>
    <clipPath
       clipPathUnits="userSpaceOnUse"
       id="clipPath41">
      <path
         d="M 0,1024 H 1024 V 0 H 0 Z"
         transform="translate(-643.87001,-382.88001)"
         id="path41" />
    </clipPath>
    <clipPath
       clipPathUnits="userSpaceOnUse"
       id="clipPath43">
      <path
         d="M 0,1024 H 1024 V 0 H 0 Z"
         transform="translate(-573.28001,-327.72001)"
         id="path43" />
    </clipPath>
    <clipPath
       clipPathUnits="userSpaceOnUse"
       id="clipPath45">
      <path
         d="M 0,1024 H 1024 V 0 H 0 Z"
         transform="translate(-425.09001,-683.26002)"
         id="path45" />
    </clipPath>
    <clipPath
       clipPathUnits="userSpaceOnUse"
       id="clipPath47">
      <path
         d="M 0,1024 H 1024 V 0 H 0 Z"
         transform="translate(-396.79001,-670.03002)"
         id="path47" />
    </clipPath>
    <clipPath
       clipPathUnits="userSpaceOnUse"
       id="clipPath49">
      <path
         d="M 0,1024 H 1024 V 0 H 0 Z"
         transform="translate(-423.80001,-506.29001)"
         id="path49" />
    </clipPath>
    <clipPath
       clipPathUnits="userSpaceOnUse"
       id="clipPath51">
      <path
         d="M 0,1024 H 1024 V 0 H 0 Z"
         transform="translate(-241.94001,-458.99001)"
         id="path51" />
    </clipPath>
    <clipPath
       clipPathUnits="userSpaceOnUse"
       id="clipPath53">
      <path
         d="M 0,1024 H 1024 V 0 H 0 Z"
         transform="translate(-287.57001,-460.65001)"
         id="path53" />
    </clipPath>
    <clipPath
       clipPathUnits="userSpaceOnUse"
       id="clipPath55">
      <path
         d="M 0,1024 H 1024 V 0 H 0 Z"
         transform="translate(-354.31001,-460.75001)"
         id="path55" />
    </clipPath>
    <clipPath
       clipPathUnits="userSpaceOnUse"
       id="clipPath57">
      <path
         d="M 0,1024 H 1024 V 0 H 0 Z"
         transform="translate(-437.55001,-451.00001)"
         id="path57" />
    </clipPath>
    <clipPath
       clipPathUnits="userSpaceOnUse"
       id="clipPath59">
      <path
         d="M 0,1024 H 1024 V 0 H 0 Z"
         transform="translate(-484.69001,-453.53001)"
         id="path59" />
    </clipPath>
    <clipPath
       clipPathUnits="userSpaceOnUse"
       id="clipPath61">
      <path
         d="M 0,1024 H 1024 V 0 H 0 Z"
         transform="translate(-549.54001,-460.44001)"
         id="path61" />
    </clipPath>
    <clipPath
       clipPathUnits="userSpaceOnUse"
       id="clipPath63">
      <path
         d="M 0,1024 H 1024 V 0 H 0 Z"
         transform="translate(-642.59002,-457.45001)"
         id="path63" />
    </clipPath>
    <clipPath
       clipPathUnits="userSpaceOnUse"
       id="clipPath65">
      <path
         d="M 0,1024 H 1024 V 0 H 0 Z"
         transform="translate(-687.44002,-460.62001)"
         id="path65" />
    </clipPath>
    <clipPath
       clipPathUnits="userSpaceOnUse"
       id="clipPath67">
      <path
         d="M 0,1024 H 1024 V 0 H 0 Z"
         transform="translate(-759.38004,-460.69001)"
         id="path67" />
    </clipPath>
    <clipPath
       clipPathUnits="userSpaceOnUse"
       id="clipPath69">
      <path
         d="M 0,1024 H 1024 V 0 H 0 Z"
         transform="translate(-795.96002,-457.97001)"
         id="path69" />
    </clipPath>
    <clipPath
       clipPathUnits="userSpaceOnUse"
       id="clipPath71">
      <path
         d="M 0,1024 H 1024 V 0 H 0 Z"
         transform="translate(-416.09001,-354.27001)"
         id="path71" />
    </clipPath>
  </defs>
  <sodipodi:namedview
     id="namedview1"
     pagecolor="#ffffff"
     bordercolor="#000000"
     borderopacity="0.25"
     inkscape:showpageshadow="2"
     inkscape:pageopacity="0.0"
     inkscape:pagecheckerboard="0"
     inkscape:deskcolor="#d1d1d1">
    <inkscape:page
       x="0"
       y="0"
       inkscape:label="1"
       id="page1"
       width="1365.3333"
       height="1365.3333"
       margin="0"
       bleed="0" />
  </sodipodi:namedview>
  <g
     id="layer-MC0"
     inkscape:groupmode="layer"
     inkscape:label="Layer 1">
    <path
       id="path1"
       d="M 0,0 H 1024 V 1024 H 0 Z"
       style="fill:#000000;fill-opacity:1;fill-rule:nonzero;stroke:none"
       transform="matrix(1.3333333,0,0,-1.3333333,0,1365.3333)" />
    <path
       id="path2"
       d="m 0,0 c 5.59,-8.17 9.98,-17.09 15.57,-25.27 20.54,0.41 41.2,-0.1 61.49,-3.65 0.82,-11.09 2.1,-22.14 3.25,-33.2 -12.21,0.95 -24.47,0.56 -36.69,0.27 -2,0.05 -3.89,-0.6 -5.69,-1.38 16.58,-26.61 32.39,-53.68 48.67,-80.47 -10.41,6.18 -21.15,11.82 -32.26,16.62 C 36.17,-84.75 17.89,-42.45 0,0"
       style="fill:#fbfbfb;fill-opacity:1;fill-rule:nonzero;stroke:none"
       transform="matrix(1.3333333,0,0,-1.3333333,659.09333,396.02667)"
       clip-path="url(#clipPath3)" />
    <path
       id="path4"
       d="M 0,0 C 19.92,-4.15 39.37,-10.65 57.71,-19.49 56.03,-27.56 54.81,-35.71 53.55,-43.85 37.15,-38.22 20.16,-34.39 3,-31.99 2.32,-21.3 0.96,-10.67 0,0"
       style="fill:#fbfbfb;fill-opacity:1;fill-rule:nonzero;stroke:none"
       transform="matrix(1.3333333,0,0,-1.3333333,776.8,437.57333)"
       clip-path="url(#clipPath5)" />
    <path
       id="path6"
       d="M 0,0 C 17.96,-9.26 34.36,-21.29 49.43,-34.69 46.78,-39.36 44.06,-43.98 41.22,-48.53 27.27,-38.32 11.86,-30.22 -4,-23.39 -2.56,-15.61 -1.4,-7.79 0,0"
       style="fill:#fbfbfb;fill-opacity:1;fill-rule:nonzero;stroke:none"
       transform="matrix(1.3333333,0,0,-1.3333333,867.30667,470.26667)"
       clip-path="url(#clipPath7)" />
    <path
       id="path8"
       d="m 0,0 c 23.6,-24.12 41.28,-54.23 49.7,-86.98 0.49,-1.99 0.6,-4.06 0.7,-6.12 C 46,-78.84 38.78,-65.58 30.5,-53.23 20.02,-37.92 7.24,-24.18 -7.24,-12.58 -5.12,-8.22 -2.31,-4.26 0,0"
       style="fill:#fbfbfb;fill-opacity:1;fill-rule:nonzero;stroke:none"
       transform="matrix(1.3333333,0,0,-1.3333333,944.4,527.84)"
       clip-path="url(#clipPath9)" />
    <path
       id="path10"
       d="m 0,0 c -0.11,-0.86 -0.33,-2.59 -0.44,-3.45 9.64,-5.77 19.5,-11.14 29.19,-16.82 6.57,-3.74 12.89,-8.1 20.02,-10.74 10.82,-2.72 22.07,-1.03 32.92,0.59 9.11,1.6 18.2,-3.44 27.26,-0.86 3.84,3.07 6.82,7.11 10.66,10.21 4.43,-1.12 8.97,-1.8 13.55,-1.76 -12.11,4.05 -24.05,8.67 -36.51,11.55 C 72.62,-4.48 47.77,-1 22.88,0.5 15.28,1.13 7.48,2.04 0,0 m -220.14,84.22 c -36.89,-6.75 -71.64,-23.34 -101.29,-46.15 -2.78,-2.07 -5.22,-4.55 -7.47,-7.17 4.93,-4.73 11.85,-7.79 18.75,-7.19 48.98,0.42 97.97,-0.11 146.95,-0.01 11.43,-0.15 22.87,-0.06 34.31,0.3 -1.88,2.84 -3.76,5.67 -5.86,8.34 -10.08,13.09 -20.5,25.98 -32.11,37.75 -6.05,5.78 -12.13,12.17 -20.36,14.71 -10.7,3.48 -22.15,1.57 -32.92,-0.58 m -3.11,6.38 c 11.83,2.58 23.89,4.55 36.03,4.28 26.62,0.22 53.13,-2.51 79.56,-5.31 21.63,-2.25 42.44,-9.6 61.71,-19.49 10.25,-5.43 20.46,-11.11 29.77,-18.03 -19.09,9.47 -37.53,20.7 -58.05,26.92 -31.75,9.24 -65.15,9.08 -97.91,8.96 13.13,-11.52 25.29,-24.1 37.4,-36.67 2.97,-3.05 5.73,-6.32 9,-9.06 3.39,-3.12 6.49,-7.39 11.41,-8.01 12.4,-0.6 24.84,0.16 37.23,-0.7 30.62,-0.44 61.24,0.06 91.85,-0.68 24.13,-1.29 48.25,-3.12 72.18,-6.52 20.29,-3.13 40.77,-6.4 59.99,-13.91 7.29,-1.78 13.85,-5.48 20.66,-8.49 7.62,-3.42 14.39,-8.35 21.38,-12.83 6.91,-5.74 14.98,-10.51 19.99,-18.18 5.79,-10.55 7.11,-22.81 8.57,-34.57 -3.13,10.86 -5.53,22.11 -11.09,32.07 -9.29,2.83 -19.05,2.81 -28.66,3.22 -10.69,0.1 -21.42,0.28 -32.06,-0.9 -3.6,-0.41 -7.38,-2.6 -8.41,-6.27 -1.34,-4.82 -2.5,-9.69 -3.39,-14.62 -1.61,2.75 -3.4,6.53 -7.1,6.51 -27.29,1.15 -54.62,0.58 -81.92,1.36 -6.23,0.33 -12.63,1.56 -18.76,-0.19 -2.61,-0.84 -3.35,-3.77 -4.46,-5.95 -3.54,9.13 -8.33,17.88 -15.19,24.93 -5.13,4.75 -10.95,8.93 -17.51,11.42 -10.35,3.39 -21.49,2.85 -32.13,1.43 -9.36,-2.26 -18.27,-6.04 -27.1,-9.81 5.18,6.99 12.93,11.47 20.93,14.5 8.86,4.39 18.83,5.36 28.4,7.3 -45.12,-0.48 -90.23,-1.92 -135.36,-2.05 -3.47,-0.11 -6.9,-0.82 -10.38,-0.81 -15.51,-0.03 -30.99,-0.94 -46.49,-1.26 -7.68,-0.25 -15.36,0.16 -23.03,-0.23 -35.06,-1.48 -70.14,-2.27 -105.22,-2.86 2.13,-3 5.25,-5.1 7.4,-8.09 6.81,-8.75 9.56,-19.71 12.6,-30.16 -5.18,10.61 -11.7,21.52 -22.35,27.41 -4.94,2.87 -10.6,4.94 -16.39,4.46 -10.75,-0.76 -20.48,-7.38 -26.24,-16.33 -1.09,1.59 -0.58,3.63 0.8,4.84 4.4,4.63 8.18,9.93 13.43,13.66 1.44,1.03 2.67,2.32 3.84,3.64 -10.13,-1.37 -20.46,-0.32 -30.52,-2.3 -5.13,-1.13 -6.8,-6.75 -9.24,-10.71 1.11,5.67 1.37,12.27 5.72,16.58 8.06,3.92 17.15,5.08 25.37,8.62 11.48,6.11 21.26,14.82 32.12,21.88 7.91,5.4 15.53,11.26 23.86,16.04 30.18,19.52 62.33,37.28 97.76,44.96"
       style="fill:#fbfbfb;fill-opacity:1;fill-rule:nonzero;stroke:none"
       transform="matrix(1.3333333,0,0,-1.3333333,809.6,674.42667)"
       clip-path="url(#clipPath11)" />
    <path
       id="path12"
       d="m 0,0 c 7.04,2.08 14.85,1.84 21.7,-0.86 4.21,-1.99 5.81,-6.76 7.94,-10.58 -2.93,1 -5.96,1.72 -9.04,1.95 C 14.2,-8.91 7.84,-7.77 1.41,-7.77 -0.9,-7.7 -3.02,-8.68 -5.07,-9.6 -3.99,-6.27 -4.03,-1.29 0,0"
       style="fill:#fbfbfb;fill-opacity:1;fill-rule:nonzero;stroke:none"
       transform="matrix(1.3333333,0,0,-1.3333333,569.98667,618.41333)"
       clip-path="url(#clipPath13)" />
    <path
       id="path14"
       d="M 0,0 C 1.02,0.44 2.04,0.88 3.07,1.31 V -22.83 C 1.97,-23.3 0.89,-23.79 -0.19,-24.28 -0.03,-16.19 -0.36,-8.09 0,0"
       style="fill:#fbfbfb;fill-opacity:1;fill-rule:nonzero;stroke:none"
       transform="matrix(1.3333333,0,0,-1.3333333,577.45333,839)"
       clip-path="url(#clipPath15)" />
    <path
       id="path16"
       d="M 0,0 C 1.9,1.42 4.28,-1.75 2.33,-3.14 0.49,-5.19 -2.27,-1.41 0,0"
       style="fill:#fbfbfb;fill-opacity:1;fill-rule:nonzero;stroke:none"
       transform="matrix(1.3333333,0,0,-1.3333333,663.25333,838.2)"
       clip-path="url(#clipPath17)" />
    <path
       id="path18"
       d="M 0,0 C 0.04,-2.18 0.04,-4.35 0.05,-6.55 2.54,-4.53 5.11,-2.6 7.37,-0.32 5.13,1.16 2.34,1.25 0,0 M -2.94,0.87 C 0.15,5.37 11,4.7 10.16,-2.13 6.9,-4.62 3.57,-7.02 0.41,-9.64 c -0.3,-2.93 4.29,-2.22 6.06,-1.43 0.14,0.64 0.43,1.91 0.57,2.55 1.03,0.52 2.05,1.03 3.09,1.52 -0.2,-2.1 0.59,-5.1 -1.81,-6.24 -3.45,-1.84 -8.95,-1.91 -11.29,1.66 -0.35,4.12 -0.42,8.34 0.03,12.45"
       style="fill:#fbfbfb;fill-opacity:1;fill-rule:nonzero;stroke:none"
       transform="matrix(1.3333333,0,0,-1.3333333,486.22667,851.54667)"
       clip-path="url(#clipPath19)" />
    <path
       id="path20"
       d="m 0,0 c 0.73,0.35 2.19,1.06 2.92,1.41 1.29,-2.16 2.6,-4.31 4,-6.41 1.26,2.16 2.54,4.3 3.85,6.42 0.95,-0.46 1.9,-0.92 2.86,-1.4 -1.63,-2.71 -3.28,-5.41 -4.94,-8.11 1.58,-2.65 3.33,-5.2 4.76,-7.95 -0.88,-0.55 -1.77,-1.09 -2.67,-1.61 -1.14,1.88 -2.2,3.82 -3.48,5.6 -2.47,-0.41 -2.89,-3.85 -4.42,-5.56 -0.7,0.38 -2.1,1.14 -2.8,1.52 1.67,2.65 3.27,5.33 4.92,7.98 C 3.32,-5.41 1.67,-2.7 0,0"
       style="fill:#fbfbfb;fill-opacity:1;fill-rule:nonzero;stroke:none"
       transform="matrix(1.3333333,0,0,-1.3333333,512.4,847.94667)"
       clip-path="url(#clipPath21)" />
    <path
       id="path22"
       d="M 0,0 C -0.05,2.74 3.2,3.67 5.4,3.96 9,4.52 14.09,2.74 13.33,-1.76 12.22,-2.31 11.12,-2.87 10.02,-3.44 9.99,-2.15 9.97,-0.88 9.96,0.39 7.8,1.53 5.23,1.57 3.11,0.31 3.27,-3.14 3.04,-6.61 3.26,-10.07 c 1.46,-2.11 4.5,-1.11 6.56,-0.65 0.05,0.64 0.14,1.91 0.19,2.55 1.08,0.51 2.15,1.02 3.24,1.51 -0.2,-2.1 0.57,-5.02 -1.79,-6.2 C 8.03,-14.7 2.72,-14.74 0.22,-11.38 -0.37,-7.64 -0.03,-3.78 0,0"
       style="fill:#fbfbfb;fill-opacity:1;fill-rule:nonzero;stroke:none"
       transform="matrix(1.3333333,0,0,-1.3333333,543.29333,852.04)"
       clip-path="url(#clipPath23)" />
    <path
       id="path24"
       d="m 0,0 c 1.07,0.55 2.16,1.09 3.24,1.62 0.02,-5.05 -0.03,-10.1 0.04,-15.15 2.23,-0.86 4.73,-1.06 6.82,0.3 -0.12,4.41 -0.05,8.82 -0.05,13.22 1.05,0.54 2.11,1.08 3.17,1.61 -0.11,-5.2 0.17,-10.41 -0.13,-15.61 -2.58,-4.03 -9.76,-4 -12.73,-0.41 C -0.52,-9.72 0.21,-4.79 0,0"
       style="fill:#fbfbfb;fill-opacity:1;fill-rule:nonzero;stroke:none"
       transform="matrix(1.3333333,0,0,-1.3333333,597.64,848.16)"
       clip-path="url(#clipPath25)" />
    <path
       id="path26"
       d="M 0,0 C 2.91,3.31 9.69,3.19 11.21,-1.5 10.18,-1.9 9.15,-2.3 8.12,-2.71 7.84,1.42 0.13,-0.68 3.29,-4.07 c 2.93,-0.7 7.3,-0.09 8.64,-3.55 0,-2.28 0.89,-5.46 -1.47,-6.91 -3.32,-1.88 -7.92,-1.84 -10.9,0.69 -0.95,1.09 -0.58,2.66 -0.78,3.95 1.06,0.54 2.12,1.08 3.19,1.61 0,-1.32 0.09,-2.64 0.25,-3.97 2.09,-1.37 4.82,-0.99 6.86,0.29 0.02,1.46 -0.22,2.84 -0.72,4.15 -2.49,0.9 -5.4,0.43 -7.65,2.03 C -0.88,-4.39 -0.94,-1.74 0,0"
       style="fill:#fbfbfb;fill-opacity:1;fill-rule:nonzero;stroke:none"
       transform="matrix(1.3333333,0,0,-1.3333333,631.02667,849.70667)"
       clip-path="url(#clipPath27)" />
    <path
       id="path28"
       d="M 0,0 C 1.07,0.53 2.15,1.06 3.24,1.57 3.22,-4.27 3.23,-10.12 3.23,-15.97 2.14,-16.45 1.06,-16.95 -0.02,-17.45 0.01,-11.63 -0.02,-5.81 0,0"
       style="fill:#fbfbfb;fill-opacity:1;fill-rule:nonzero;stroke:none"
       transform="matrix(1.3333333,0,0,-1.3333333,662.54667,848.12)"
       clip-path="url(#clipPath29)" />
    <path
       id="path30"
       d="M 0,0 C 0.71,0.35 2.14,1.06 2.86,1.41 4.6,-2.8 5.37,-7.42 7.63,-11.41 9.1,-7.16 10.4,-2.86 11.89,1.38 12.61,1.03 14.06,0.34 14.78,0 12.84,-5.35 11,-10.74 9.11,-16.11 8.14,-16.61 7.18,-17.13 6.22,-17.65 4.13,-11.77 2.13,-5.86 0,0"
       style="fill:#fbfbfb;fill-opacity:1;fill-rule:nonzero;stroke:none"
       transform="matrix(1.3333333,0,0,-1.3333333,680.8,847.92)"
       clip-path="url(#clipPath31)" />
    <path
       id="path32"
       d="M 0,0 C -0.01,-2.22 -0.02,-4.45 -0.01,-6.68 2.48,-4.69 5.01,-2.75 7.28,-0.5 5.11,1.06 2.39,1.02 0,0 M -2.79,1.11 C 0.65,5.17 11.08,4.39 10,-2.4 6.43,-4.98 2.9,-7.62 -0.45,-10.48 c 2.31,-1.97 7.7,-2.26 7.51,1.85 0.98,0.51 1.97,1.01 2.97,1.49 -0.28,-1.89 0.6,-4.34 -1.11,-5.75 -2.9,-2.17 -7.16,-2.2 -10.29,-0.54 -2.68,1.28 -1.7,4.65 -1.91,6.99 0.19,2.5 -0.43,5.2 0.49,7.55"
       style="fill:#fbfbfb;fill-opacity:1;fill-rule:nonzero;stroke:none"
       transform="matrix(1.3333333,0,0,-1.3333333,716.56,851.37333)"
       clip-path="url(#clipPath33)" />
    <path
       id="path34"
       d="m 0,0 c 2.79,4.95 14.24,4.04 13.1,-2.94 -1.09,-0.45 -2.16,-0.93 -3.23,-1.41 0.02,1.25 0.04,2.48 0.08,3.7 -2.18,1.14 -4.63,1.11 -6.87,0.2 -0.04,-3.71 -0.02,-7.42 -0.02,-11.13 2.6,-1.12 7.31,-1.48 7.1,2.52 0.98,0.49 1.97,0.97 2.96,1.44 -0.28,-1.86 0.55,-4.22 -1.03,-5.67 -2.58,-2.09 -6.32,-2.18 -9.35,-1.13 -1.39,0.54 -2.98,1.61 -2.87,3.3 C -0.2,-7.42 -0.38,-3.68 0,0"
       style="fill:#fbfbfb;fill-opacity:1;fill-rule:nonzero;stroke:none"
       transform="matrix(1.3333333,0,0,-1.3333333,771.08,850.72)"
       clip-path="url(#clipPath35)" />
    <path
       id="path36"
       d="m 0,0 c -1.07,-1.34 -0.52,-3.2 -0.79,-4.78 2.01,-1.29 4.36,-1.13 6.57,-0.47 0.05,1.7 0.08,3.39 0.11,5.07 C 3.97,0.36 1.9,0.89 0,0 M -0.22,9.45 C 2.88,9.57 6.84,9.75 8.83,6.87 9.42,2.07 8.97,-2.83 9.02,-7.67 8.37,-7.92 7.05,-8.4 6.4,-8.64 c -3.44,0.4 -8.18,-0.57 -10.13,3.1 0.01,2.56 -1.08,6.2 1.77,7.62 2.39,1.51 5.32,1.18 7.99,0.8 1.02,4.77 -4.51,3.89 -7.46,3.88 0.4,0.9 0.8,1.8 1.21,2.69"
       style="fill:#fbfbfb;fill-opacity:1;fill-rule:nonzero;stroke:none"
       transform="matrix(1.3333333,0,0,-1.3333333,807.33333,859.4)"
       clip-path="url(#clipPath37)" />
    <path
       id="path38"
       d="M 0,0 C 1.72,3.08 5.71,2.9 8.75,3.08 8.3,2.17 7.86,1.26 7.42,0.34 5.9,0.18 4.43,-0.17 3,-0.68 3.1,-5.15 3.03,-9.62 3.05,-14.09 1.97,-14.59 0.9,-15.1 -0.16,-15.62 -0.06,-10.41 -0.4,-5.19 0,0"
       style="fill:#fbfbfb;fill-opacity:1;fill-rule:nonzero;stroke:none"
       transform="matrix(1.3333333,0,0,-1.3333333,834.37333,850.62667)"
       clip-path="url(#clipPath39)" />
    <path
       id="path40"
       d="M 0,0 C -1.54,6.76 9.39,8.2 11.87,2.76 10.81,2.17 9.74,1.59 8.69,1 8.6,4.59 1.84,4.08 3.36,0.34 c 1.94,-1.79 5.43,-0.38 7.58,-2.23 2.26,-1.12 1.52,-3.98 1.6,-6.02 0.2,-1.47 -1.07,-2.59 -2.25,-3.18 -3.09,-1.32 -6.98,-1.31 -9.76,0.72 -1.45,0.94 -1.03,2.89 -1.24,4.33 1.11,0.54 2.24,1.06 3.37,1.59 -0.05,-0.94 -0.15,-2.81 -0.2,-3.74 2.12,-1.37 4.88,-1.46 6.98,0.03 0,0.94 0,2.81 -0.01,3.75 C 6.48,-2.61 1.31,-4.06 0,0"
       style="fill:#fbfbfb;fill-opacity:1;fill-rule:nonzero;stroke:none"
       transform="matrix(1.3333333,0,0,-1.3333333,858.49333,854.82667)"
       clip-path="url(#clipPath41)" />
    <path
       id="path42"
       d="m 0,0 c 10.82,7.34 20.27,16.53 28.69,26.5 6.1,0.21 12.2,0.1 18.3,-0.12 C 42.8,18.49 36.46,12.05 30.08,5.9 18.87,-5 5.63,-13.8 -8.73,-19.99 c -35.49,-15.37 -77.83,-14.24 -112.26,3.5 -19.27,9.71 -36.22,24.16 -48.45,41.98 7.35,-5.75 13.19,-13.18 20.58,-18.91 28.08,-23.25 66.73,-32.73 102.45,-25.68 16.57,3.09 32.34,9.87 46.41,19.1"
       style="fill:#fbfbfb;fill-opacity:1;fill-rule:nonzero;stroke:none"
       transform="matrix(1.3333333,0,0,-1.3333333,764.37333,928.37333)"
       clip-path="url(#clipPath43)" />
    <path
       id="path44"
       d="m 0,0 c 22.8,8.64 46.62,15.06 70.99,16.97 1.43,0.38 2.94,-0.39 3.38,-1.82 4.35,-10.3 7.95,-20.9 12,-31.32 0.71,-1.67 1.12,-3.45 1.22,-5.26 -6.98,-1.55 -13.97,-3.08 -20.94,-4.62 -7.96,-3.12 -16.24,-5.33 -24.18,-8.5 -6.89,-2.54 -13.34,-6.13 -20.27,-8.55 -3.95,7.66 -8.91,14.78 -12.37,22.7 C 6.62,-13.61 0.75,-7.75 0,0"
       style="fill:#df120f;fill-opacity:1;fill-rule:nonzero;stroke:none"
       transform="matrix(1.3333333,0,0,-1.3333333,566.78667,454.32)"
       clip-path="url(#clipPath45)" />
    <path
       id="path46"
       d="m 0,0 c 5.04,2.68 9.97,5.62 15.38,7.49 0.99,-0.74 2.11,-1.42 2.68,-2.58 6.45,-11.54 12.83,-23.13 19.43,-34.6 1.16,-2.02 1.96,-4.23 2.4,-6.53 -6.61,-3.66 -12.26,-8.97 -19.3,-11.85 -3.06,-0.7 -6.25,-0.25 -9.36,-0.46 -31.42,-2.03 -61.1,-14.13 -88.75,-28.47 -1.9,-1.1 -4.05,-1.59 -6.22,-1.75 C -63.61,-45.53 -34.01,-18.54 0,0"
       style="fill:#df120f;fill-opacity:1;fill-rule:nonzero;stroke:none"
       transform="matrix(1.3333333,0,0,-1.3333333,529.05333,471.96)"
       clip-path="url(#clipPath47)" />
    <path
       id="path48"
       d="M 0,0 C 26.73,0.52 53.5,-0.08 80.2,1.42 86.47,1.76 93.23,3.24 99.25,1.1 91.33,-6.23 81.47,-11.44 74.73,-20.01 c 0.74,5.27 4.2,9.46 6.39,14.14 -11.3,0.42 -22.65,-0.52 -33.89,0.98 -24.69,0.18 -49.37,0.1 -74.06,0.38 -7.65,0.05 -15.3,-0.11 -22.94,0.4 -15.01,0.01 -30.01,0.02 -45.02,0.34 -5.71,0.19 -11.46,0.09 -17.11,1.08 10.38,-0.01 20.81,-0.77 31.16,0.21 7.24,1.49 14.63,0.55 21.94,1.22 C -39.21,-0.5 -19.57,-1.46 0,0"
       style="fill:#df120f;fill-opacity:1;fill-rule:nonzero;stroke:none"
       transform="matrix(1.3333333,0,0,-1.3333333,565.06667,690.28)"
       clip-path="url(#clipPath49)" />
    <path
       id="path50"
       d="m 0,0 c 1.87,2.01 4.93,2.02 7.4,1.38 3.75,-2.09 5.79,-6.07 7.85,-9.65 7.94,-14.5 17.37,-28.18 24.58,-43.09 -3.99,-0.16 -7.98,-0.11 -11.97,-0.04 -3.05,4.55 -5.87,9.25 -8.45,14.08 -8.43,0.6 -16.93,-0.53 -25.31,0.68 1.46,3.09 3.08,6.08 4.69,9.08 4.68,0.13 9.36,0.12 14.04,0.26 -2.22,4.98 -5.15,9.58 -8.27,14.04 -8.07,-12.53 -15.61,-25.39 -23.39,-38.1 -4.03,-0.22 -8.1,-0.28 -12.1,0.42 7.35,14.03 16.07,27.29 24.06,40.96 C -4.73,-6.56 -3,-2.77 0,0"
       style="fill:#df120f;fill-opacity:1;fill-rule:nonzero;stroke:none"
       transform="matrix(1.3333333,0,0,-1.3333333,322.58667,753.34667)"
       clip-path="url(#clipPath51)" />
    <path
       id="path52"
       d="m 0,0 c 3.03,0.06 6.06,0.07 9.09,0.03 0.46,-11.19 -0.82,-22.46 0.9,-33.58 0.58,-4.57 4.36,-8.63 8.96,-9.3 5.81,-0.96 11.74,-0.59 17.6,-0.45 4.64,0.11 9.27,2.86 11.25,7.11 1.22,3.02 0.95,6.34 1.08,9.52 0.03,8.87 -0.15,17.74 0.2,26.61 3.18,0.17 6.38,0.2 9.56,-0.01 0.13,-10.54 0.37,-21.09 0.11,-31.63 -0.31,-7.08 -3.27,-14.88 -10,-18.16 -8.71,-4.66 -18.87,-3.11 -28.33,-3.07 -9.76,0.1 -19.77,7.48 -20.49,17.64 C -0.44,-23.53 -0.37,-11.76 0,0"
       style="fill:#df120f;fill-opacity:1;fill-rule:nonzero;stroke:none"
       transform="matrix(1.3333333,0,0,-1.3333333,383.42667,751.13333)"
       clip-path="url(#clipPath53)" />
    <path
       id="path54"
       d="m 0,0 c 17.06,-0.18 34.13,0.12 51.19,-0.15 -0.04,-3.1 -0.08,-6.19 -0.1,-9.29 -7.01,-0.23 -14.03,0.21 -21.01,-0.64 -0.12,-14.33 -0.02,-28.66 -0.1,-42.99 -2.99,-0.17 -5.99,-0.18 -8.98,-0.17 -0.81,3.43 -0.56,6.97 -0.65,10.46 -0.13,11.05 0.15,22.09 -0.01,33.14 C 13.47,-9.48 6.6,-9.61 -0.27,-9.43 -0.62,-6.28 -0.43,-3.12 0,0"
       style="fill:#df120f;fill-opacity:1;fill-rule:nonzero;stroke:none"
       transform="matrix(1.3333333,0,0,-1.3333333,472.41333,751)"
       clip-path="url(#clipPath55)" />
    <path
       id="path56"
       d="m 0,0 c -3.48,-0.26 -7.21,-0.37 -10.13,-2.53 -8.98,-5.74 -10.37,-20.24 -2.45,-27.42 7.45,-5.78 17.34,-3.32 26.03,-3.86 7.31,-0.72 15.15,3.65 17.21,10.93 3.04,8.72 -1.97,19.92 -11.22,22.19 C 13.01,0.16 6.47,0.7 0,0 M -4.16,9.56 C 2.71,9.91 9.59,9.73 16.46,9.64 25.51,9.62 34.26,4.18 38.5,-3.77 41.51,-9.8 41.84,-16.86 40.57,-23.4 38.21,-33.65 29.33,-42.97 18.4,-43.38 c -7.28,-0.26 -14.59,-0.08 -21.88,-0.08 -6.95,-0.11 -13.45,3.51 -17.89,8.69 -6.31,7.77 -8.23,18.98 -4.62,28.35 3.29,8.97 12.14,15.83 21.83,15.98"
       style="fill:#df120f;fill-opacity:1;fill-rule:nonzero;stroke:none"
       transform="matrix(1.3333333,0,0,-1.3333333,583.4,764)"
       clip-path="url(#clipPath57)" />
    <path
       id="path58"
       d="m 0,0 c 3.11,4.62 8.71,7.35 14.26,7.18 13.62,0 27.23,-0.01 40.85,0 C 55.15,4.01 55.1,0.84 54.97,-2.33 40.78,-2.63 26.55,-1.63 12.4,-2.95 9.1,-3.74 8.92,-7.9 9.86,-10.57 c 1.47,-2.74 4.87,-2.27 7.49,-2.43 10.27,-0.44 20.73,1.25 30.84,-1.15 8.55,-2.6 12.4,-13.35 9.47,-21.36 -1.94,-6.47 -8.72,-10.59 -15.3,-10.45 -14.42,-0.04 -28.84,-0.13 -43.25,0.06 -0.1,3.27 0.01,6.55 0.67,9.75 13.52,-0.35 27.05,-0.13 40.58,-0.16 3.64,-0.28 7.28,1.77 8.97,4.99 1.12,3.79 -2.08,8.15 -6.04,8.28 -11.9,1.28 -24.05,-1.12 -35.81,1.58 C -1.01,-18.62 -3.97,-7.48 0,0"
       style="fill:#df120f;fill-opacity:1;fill-rule:nonzero;stroke:none"
       transform="matrix(1.3333333,0,0,-1.3333333,646.25333,760.62667)"
       clip-path="url(#clipPath59)" />
    <path
       id="path60"
       d="m 0,0 c 12.8,0.57 25.63,0.11 38.45,0.28 6.02,0.33 12.26,-1.81 16.49,-6.17 5.73,-5.58 6.68,-14.98 3.18,-21.99 -2.73,-4.78 -7.31,-8.9 -12.89,-9.79 -9.96,-1.81 -20.1,-0.63 -30.14,-0.97 -0.11,3.24 -0.11,6.48 -0.05,9.71 9.51,0.39 19.12,-0.67 28.56,0.89 5.76,1.23 8.55,8.41 5.79,13.43 -1.66,3.26 -5.29,5.11 -8.88,5.12 C 30.29,-8.87 20.04,-9.24 9.81,-9.67 9.7,-24.09 9.83,-38.5 9.75,-52.91 c -3.41,-0.07 -6.82,0.06 -10.19,0.56 1.13,9.28 0.48,18.62 0.58,27.93 C 0.09,-16.28 0.25,-8.14 0,0"
       style="fill:#df120f;fill-opacity:1;fill-rule:nonzero;stroke:none"
       transform="matrix(1.3333333,0,0,-1.3333333,732.72,751.41333)"
       clip-path="url(#clipPath61)" />
    <path
       id="path62"
       d="m 0,0 c 2.34,3.34 7.42,4.53 10.68,1.82 2.7,-2.37 4.23,-5.74 6.13,-8.74 8.09,-14.32 17.12,-28.16 24.47,-42.88 -4.04,-0.14 -8.07,-0.15 -12.1,-0.03 -2.98,4.73 -5.22,9.96 -9.13,14.03 -8.22,0.49 -16.47,-0.14 -24.68,0.34 1.27,3.23 2.86,6.41 5.2,8.99 4.14,1.16 8.6,0.47 12.88,0.71 -1.05,4.78 -3.82,8.92 -6.55,12.9 -0.47,0.02 -1.42,0.06 -1.9,0.08 -7.61,-12.28 -14.65,-24.9 -22.45,-37.07 -4.03,-0.16 -8.06,-0.17 -12.09,-0.07 4.75,10.31 11.21,19.75 17.04,29.48 C -8.05,-13.8 -4.71,-6.46 0,0"
       style="fill:#df120f;fill-opacity:1;fill-rule:nonzero;stroke:none"
       transform="matrix(1.3333333,0,0,-1.3333333,856.78667,755.4)"
       clip-path="url(#clipPath63)" />
    <path
       id="path64"
       d="m 0,0 c 13.18,0.16 26.37,0.08 39.55,0.06 6.75,0.03 14.08,-1.7 18.53,-7.16 4.57,-4.42 4.34,-11.25 3.7,-17.08 -1.26,-6.63 -7.32,-10.8 -13.11,-13.34 3.87,-5.46 10.6,-8.87 12.69,-15.53 -3.98,-0.01 -8.07,-0.57 -11.97,0.32 -5.27,3.66 -9,9.11 -14.11,12.96 -1.05,0.88 -2.5,0.77 -3.75,0.91 -5.46,0.18 -10.93,0.11 -16.38,-0.1 -0.83,3.25 -1.23,6.65 -0.34,9.93 8.24,0.02 16.48,-0.09 24.72,0.05 4.12,0.34 9.16,1.07 11.37,5.07 2.38,3.46 1.17,8.24 -1.33,11.28 -3.24,2.83 -7.89,3.12 -11.98,3.25 C 28.31,-9.6 19.02,-9.09 9.77,-9.83 9.71,-24.19 9.61,-38.55 9.75,-52.92 6.51,-53.06 3.26,-53.1 0.03,-53.07 -0.03,-35.38 0.03,-17.69 0,0"
       style="fill:#df120f;fill-opacity:1;fill-rule:nonzero;stroke:none"
       transform="matrix(1.3333333,0,0,-1.3333333,916.58667,751.17333)"
       clip-path="url(#clipPath65)" />
    <path
       id="path66"
       d="M 0,0 C 3.08,0.02 6.16,0.03 9.26,0.03 10.01,-17.7 10.32,-35.49 9.21,-53.22 6.18,-53.19 3.16,-53.15 0.15,-53.1 -0.19,-35.41 0,-17.7 0,0"
       style="fill:#df120f;fill-opacity:1;fill-rule:nonzero;stroke:none"
       transform="matrix(1.3333333,0,0,-1.3333333,1012.5067,751.08)"
       clip-path="url(#clipPath67)" />
    <path
       id="path68"
       d="m 0,0 c 4.52,4.54 11.41,2.38 17.08,2.54 -9.49,-9.91 -21.17,-17.38 -30.67,-27.26 7.01,-5.97 14.11,-11.81 21.38,-17.47 2.64,-2.25 6.3,-4.32 6.22,-8.28 -4.7,0.26 -10.24,-1.19 -14.06,2.35 -8.47,7.41 -17.62,14.04 -25.6,22 -0.8,5.19 4.78,7.75 7.88,10.92 C -11.81,-10.18 -5.88,-5.12 0,0"
       style="fill:#df120f;fill-opacity:1;fill-rule:nonzero;stroke:none"
       transform="matrix(1.3333333,0,0,-1.3333333,1061.28,754.70667)"
       clip-path="url(#clipPath69)" />
    <path
       id="path70"
       d="m 0,0 c 4.99,0.26 9.99,0.65 14.99,0.29 4,-0.19 7.07,-3.04 10.05,-5.41 17.3,-12.99 38.34,-20.93 59.88,-22.81 14.55,-1.72 29.28,0.47 43.37,4.13 13.15,3.54 25.47,9.81 36.46,17.79 2.96,2.24 6.08,4.23 9.19,6.23 C 161.7,-14.76 144.51,-25.02 126.44,-31.45 83.19,-47.29 30.33,-35.18 0,0"
       style="fill:#df120f;fill-opacity:1;fill-rule:nonzero;stroke:none"
       transform="matrix(1.3333333,0,0,-1.3333333,554.78667,892.97333)"
       clip-path="url(#clipPath71)" />
  </g>
</svg>
