<?xml version="1.0" encoding="UTF-8"?>
<svg version="1.1" xmlns="http://www.w3.org/2000/svg" width="309" height="299">
<path d="M0 0 C1.08152344 0.51820312 2.16304687 1.03640625 3.27734375 1.5703125 C13.79457973 6.96906197 22.39827451 15.00240908 31 23 C31.70898438 23.65484375 32.41796875 24.3096875 33.1484375 24.984375 C33.78007812 25.58765625 34.41171875 26.1909375 35.0625 26.8125 C35.61035156 27.33457031 36.15820312 27.85664062 36.72265625 28.39453125 C38.1865587 30.23448204 38.59659117 31.70405592 39 34 C39.66 34 40.32 34 41 34 C42.14160156 35.43017578 42.14160156 35.43017578 43.390625 37.4453125 C43.85001465 38.18507324 44.3094043 38.92483398 44.78271484 39.68701172 C61.64918903 67.71173904 69.48102631 100.48771298 61.54345703 132.93164062 C52.90753501 165.79935461 33.49873379 191.44126606 4.75 209.375 C-0.34579153 212.29524835 -5.56219544 214.78381142 -11 217 C-12.5778125 217.65162109 -12.5778125 217.65162109 -14.1875 218.31640625 C-42.69981398 228.97670221 -75.82891042 227.06796339 -103.48632812 214.90673828 C-112.04162221 210.8632176 -119.80542505 206.16868185 -127 200 C-128.35351562 198.93458984 -128.35351562 198.93458984 -129.734375 197.84765625 C-135.47265437 193.31131377 -140.50080467 188.76459401 -145 183 C-145.61875 182.22293701 -145.61875 182.22293701 -146.25 181.43017578 C-153.32526239 172.48308439 -158.715163 163.56627344 -163 153 C-163.47179687 151.84757813 -163.94359375 150.69515625 -164.4296875 149.5078125 C-167.7609683 140.81494367 -169.58101187 132.15892337 -171 123 C-171.13277344 122.19175781 -171.26554687 121.38351563 -171.40234375 120.55078125 C-173.94737722 102.24745835 -171.18095725 83.29778684 -165 66 C-164.64164063 64.93523437 -164.28328125 63.87046875 -163.9140625 62.7734375 C-157.93200062 45.95139772 -147.07809947 32.77140428 -135 20 C-134.27039063 19.22140625 -133.54078125 18.4428125 -132.7890625 17.640625 C-131 16 -131 16 -129 16 C-129 15.34 -129 14.68 -129 14 C-125.17511272 11.08204476 -121.05832768 8.57993688 -117 6 C-116.1646875 5.45601562 -115.329375 4.91203125 -114.46875 4.3515625 C-107.66638473 0.06607238 -100.44833104 -3.02566646 -93 -6 C-92.36787598 -6.25837646 -91.73575195 -6.51675293 -91.08447266 -6.78295898 C-62.17406047 -18.21735674 -27.25416313 -13.19199804 0 0 Z M-12 1 C-12 70.3 -12 139.6 -12 211 C7.84793157 203.06082737 26.03072821 190.04014163 38 172 C38.56074219 171.17113281 39.12148437 170.34226563 39.69921875 169.48828125 C56.9140893 143.31122213 63.42479756 113.13542509 57.48828125 82.14111328 C54.33760197 68.32538464 48.37829228 55.99665944 41 44 C40.21882813 42.68322266 40.21882813 42.68322266 39.421875 41.33984375 C37.52650635 38.19421687 35.60738001 35.56070058 33 33 C32.13560856 31.94580154 31.28104203 30.88345462 30.4375 29.8125 C29.633125 28.884375 28.82875 27.95625 28 27 C27.34 27 26.68 27 26 27 C25.70029297 26.17242187 25.70029297 26.17242187 25.39453125 25.328125 C23.43762397 22.06113133 20.66772425 20.03146546 17.6875 17.75 C17.06593018 17.26982422 16.44436035 16.78964844 15.80395508 16.29492188 C6.97209272 9.57908476 -1.35800368 4.54733211 -12 1 Z M-96 0 C-96.33 0.99 -96.66 1.98 -97 3 C-97.99 2.505 -97.99 2.505 -99 2 C-119.90454964 9.40369466 -137.32492783 26.7090536 -149 45 C-149.55429688 45.85464844 -150.10859375 46.70929688 -150.6796875 47.58984375 C-152.20152143 50.02241249 -153.61902444 52.4849272 -155 55 C-155.50273437 55.90234375 -156.00546875 56.8046875 -156.5234375 57.734375 C-168.61879877 81.43391535 -170.08396942 113.08830635 -162.54296875 138.44140625 C-157.65770035 153.32939505 -150.58130948 167.29376726 -140 179 C-139.34 179 -138.68 179 -138 179 C-137.505 179.99 -137.505 179.99 -137 181 C-137 180.01 -137 179.02 -137 178 C-137.66 178 -138.32 178 -139 178 C-138.84402344 177.11957031 -138.68804687 176.23914063 -138.52734375 175.33203125 C-138.33269531 174.17058594 -138.13804687 173.00914062 -137.9375 171.8125 C-137.74027344 170.66394531 -137.54304688 169.51539063 -137.33984375 168.33203125 C-136.69765347 162.03561389 -138.46900507 159.14352511 -142 154 C-143.30768403 151.56539607 -144.47071069 149.07282388 -145.625 146.5625 C-146.07359375 145.61793945 -146.07359375 145.61793945 -146.53125 144.65429688 C-149.50183302 138.25965688 -151.04122811 131.98533808 -152 125 C-152.33 124.34 -152.66 123.68 -153 123 C-153.31648391 119.6593365 -153.51128525 116.31782389 -153.71875 112.96875 C-153.81288062 110.0735199 -153.81288062 110.0735199 -155 108 C-155.17666445 104.02504988 -154.79304368 100.96521841 -154 97 C-138.82 97.33 -123.64 97.66 -108 98 C-107.67 133.64 -107.34 169.28 -107 206 C-99.83156675 209.94576739 -99.83156675 209.94576739 -95 211 C-95 141.37 -95 71.74 -95 0 C-95.33 0 -95.66 0 -96 0 Z " fill="#000000" transform="translate(210,48)"/>
<path d="M0 0 C6.60145773 1.2571071 12.26714165 3.14825078 18.3125 6.0625 C19.14209229 6.46098145 19.97168457 6.85946289 20.82641602 7.27001953 C34.99623419 14.28117774 49.74861285 26.00245256 59 39 C59 39.66 59 40.32 59 41 C59.66 41 60.32 41 61 41 C62.14160156 42.43017578 62.14160156 42.43017578 63.390625 44.4453125 C63.85001465 45.18507324 64.3094043 45.92483398 64.78271484 46.68701172 C81.64918903 74.71173904 89.48102631 107.48771298 81.54345703 139.93164062 C72.90753501 172.79935461 53.49873379 198.44126606 24.75 216.375 C10.85807114 224.3628591 10.85807114 224.3628591 3 225 C3.33 224.34 3.66 223.68 4 223 C4.09255054 221.42879781 4.12192535 219.8536794 4.12025452 218.27975464 C4.12162918 217.28413513 4.12300385 216.28851563 4.12442017 215.26272583 C4.12082489 214.16652924 4.11722961 213.07033264 4.11352539 211.94091797 C4.11367142 210.78970459 4.11381744 209.63849121 4.1139679 208.45239258 C4.11326904 204.63230531 4.1054779 200.81226629 4.09765625 196.9921875 C4.09579197 194.34945706 4.09436812 191.70672627 4.09336853 189.06399536 C4.09025748 182.80959377 4.08204714 176.55520961 4.07201904 170.3008157 C4.05975581 162.48309923 4.05427364 154.66537994 4.04882812 146.84765625 C4.0390816 132.89842391 4.01905054 118.94922962 4 105 C-15.14 105 -34.28 105 -54 105 C-55.02734359 100.89062563 -55.14777919 97.18351903 -55.14526367 92.99023438 C-55.15030159 91.78467644 -55.15030159 91.78467644 -55.15544128 90.55476379 C-55.16493156 87.90107677 -55.16689326 85.24745294 -55.16796875 82.59375 C-55.17118204 80.74816868 -55.17454617 78.90258762 -55.17805481 77.05700684 C-55.18404082 73.19017954 -55.18589519 69.32337457 -55.18530273 65.45654297 C-55.185201 60.49991818 -55.19886727 55.54343628 -55.21607494 50.5868454 C-55.22718712 46.77617737 -55.2292222 42.96554402 -55.22869301 39.15486145 C-55.22987376 37.32720954 -55.23430088 35.49955675 -55.24202538 33.67192078 C-55.25181192 31.11776671 -55.24895283 28.5639246 -55.24291992 26.00976562 C-55.24853943 25.25431961 -55.25415894 24.4988736 -55.25994873 23.72053528 C-55.23771752 20.02057267 -55.18024472 17.08432067 -53 14 C-47.65408759 11.70673153 -40.50589072 12.81530325 -34.8125 12.8125 C-33.52279297 12.80025391 -32.23308594 12.78800781 -30.90429688 12.77539062 C-29.64294922 12.77345703 -28.38160156 12.77152344 -27.08203125 12.76953125 C-25.93968018 12.76542236 -24.7973291 12.76131348 -23.62036133 12.75708008 C-20 13 -20 13 -11 15 C-11 22.26 -11 29.52 -11 37 C-6.05 37 -1.1 37 4 37 C4 26.11 4 15.22 4 4 C2.68 3.67 1.36 3.34 0 3 C0 2.01 0 1.02 0 0 Z M8 8 C8 77.3 8 146.6 8 218 C27.84793157 210.06082737 46.03072821 197.04014163 58 179 C58.56074219 178.17113281 59.12148437 177.34226563 59.69921875 176.48828125 C76.9140893 150.31122213 83.42479756 120.13542509 77.48828125 89.14111328 C74.33760197 75.32538464 68.37829228 62.99665944 61 51 C60.21882813 49.68322266 60.21882813 49.68322266 59.421875 48.33984375 C57.52650635 45.19421687 55.60738001 42.56070058 53 40 C52.13560856 38.94580154 51.28104203 37.88345462 50.4375 36.8125 C49.633125 35.884375 48.82875 34.95625 48 34 C47.34 34 46.68 34 46 34 C45.70029297 33.17242187 45.70029297 33.17242187 45.39453125 32.328125 C43.43762397 29.06113133 40.66772425 27.03146546 37.6875 24.75 C37.06593018 24.26982422 36.44436035 23.78964844 35.80395508 23.29492188 C26.97209272 16.57908476 18.64199632 11.54733211 8 8 Z " fill="#010000" transform="translate(190,41)"/>
<path d="M0 0 C0 10.56 0 21.12 0 32 C-4.29 32 -8.58 32 -13 32 C-13 24.74 -13 17.48 -13 10 C-18.52469211 9.38614532 -23.47242892 8.87271052 -28.94140625 8.8671875 C-30.80635742 8.86525391 -30.80635742 8.86525391 -32.70898438 8.86328125 C-34.61647461 8.86908203 -34.61647461 8.86908203 -36.5625 8.875 C-38.47579102 8.86919922 -38.47579102 8.86919922 -40.42773438 8.86328125 C-41.66974609 8.86457031 -42.91175781 8.86585937 -44.19140625 8.8671875 C-45.30717041 8.86831543 -46.42293457 8.86944336 -47.57250977 8.87060547 C-51.39750649 9.01500666 -55.20183666 9.52522958 -59 10 C-59 40.36 -59 70.72 -59 102 C-39.53 102 -20.06 102 0 102 C0 139.95 0 177.9 0 217 C-3.96 217.99 -3.96 217.99 -8 219 C-9.12277344 219.28101563 -10.24554688 219.56203125 -11.40234375 219.8515625 C-19.88826219 221.70815018 -28.06091533 222.29055624 -36.75 222.3125 C-37.77859131 222.31781738 -38.80718262 222.32313477 -39.86694336 222.32861328 C-51.1850017 222.22549983 -61.04684394 219.98722438 -72 217 C-72 206.44 -72 195.88 -72 185 C-67.71 185 -63.42 185 -59 185 C-59 192.26 -59 199.52 -59 207 C-51.30745342 207.83162666 -43.7329327 208.10923191 -36 208.125 C-35.09942871 208.12951172 -34.19885742 208.13402344 -33.27099609 208.13867188 C-26.41801998 208.12384662 -19.88424728 207.57368727 -13 207 C-13 176.64 -13 146.28 -13 115 C-32.47 115 -51.94 115 -72 115 C-72 77.05 -72 39.1 -72 0 C-48.00024039 -5.9999399 -23.80275325 -7.93425108 0 0 Z " fill="#D41511" transform="translate(192,46)"/>
<path d="M0 0 C0.598125 0.19980469 1.19625 0.39960937 1.8125 0.60546875 C1.88193556 8.39390272 1.93527821 16.18226452 1.96793652 23.9709301 C1.98360901 27.58733915 2.00487553 31.20353683 2.03881836 34.81982422 C2.07135631 38.30816863 2.08934108 41.79630943 2.09713173 45.28479385 C2.10539269 47.26690644 2.12882087 49.24893684 2.15238953 51.23092651 C2.15261612 52.43202057 2.15284271 53.63311462 2.15307617 54.87060547 C2.15973801 55.9320578 2.16639984 56.99351013 2.17326355 58.08712769 C1.99468559 59.33370651 1.99468559 59.33370651 1.8125 60.60546875 C-1.25521191 62.65061002 -1.84318048 62.85374149 -5.29174805 62.83251953 C-6.11237228 62.83236847 -6.93299652 62.83221741 -7.77848816 62.83206177 C-9.1004998 62.81657791 -9.1004998 62.81657791 -10.44921875 62.80078125 C-11.35501175 62.79795135 -12.26080475 62.79512146 -13.19404602 62.79220581 C-16.08783158 62.78100839 -18.98130794 62.75590464 -21.875 62.73046875 C-23.83658407 62.72043838 -25.798173 62.71131263 -27.75976562 62.703125 C-32.5691296 62.68107048 -37.37826237 62.64654364 -42.1875 62.60546875 C-44.44679408 55.82758652 -39.35192812 45.9104278 -36.38671875 39.63671875 C-31.64770165 30.19135073 -13.02125717 -2.34847674 0 0 Z " fill="#0C0C0C" transform="translate(101.1875,70.39453125)"/>
<path d="M0 0 C2.49505962 2.49505962 2.35948376 3.67328888 2.625 7.125 C2.69976562 8.03507813 2.77453125 8.94515625 2.8515625 9.8828125 C2.90054688 10.58148438 2.94953125 11.28015625 3 12 C3.99 12.33 4.98 12.66 6 13 C5.814375 13.804375 5.62875 14.60875 5.4375 15.4375 C5.2209375 16.7059375 5.2209375 16.7059375 5 18 C5.33 18.33 5.66 18.66 6 19 C6.07271741 21.35313555 6.08370868 23.70833668 6.0625 26.0625 C6.05347656 27.35285156 6.04445312 28.64320313 6.03515625 29.97265625 C6.02355469 30.97167969 6.01195312 31.97070312 6 33 C5.01 33.495 5.01 33.495 4 34 C4.66 34.99 5.32 35.98 6 37 C6.63408024 41.82933206 6.92212779 46.4139402 4.4375 50.6875 C1.177046 52.44312908 -1.35645778 52.28027248 -5 52 C-5 53.65 -5 55.3 -5 57 C-1.37 57 2.26 57 6 57 C6 58.32 6 59.64 6 61 C1.05 61.495 1.05 61.495 -4 62 C-4.33 63.32 -4.66 64.64 -5 66 C-3.741875 66.103125 -2.48375 66.20625 -1.1875 66.3125 C1.31559921 66.51767207 2.67597569 66.77063448 4.73828125 68.23046875 C6.41420123 70.5809076 6.40059155 72.13374695 6.375 75 C6.38273438 75.86625 6.39046875 76.7325 6.3984375 77.625 C6 80 6 80 4.86328125 81.80078125 C2.15097111 83.54643998 0.00114086 83.29035938 -3.1875 83.1875 C-4.27417969 83.16042969 -5.36085937 83.13335937 -6.48046875 83.10546875 C-7.72763672 83.05326172 -7.72763672 83.05326172 -9 83 C-9 81.68 -9 80.36 -9 79 C-4.05 78.505 -4.05 78.505 1 78 C1 76.02 1 74.04 1 72 C-2.3 71.67 -5.6 71.34 -9 71 C-9 63.33333333 -9 55.66666667 -9 48 C-9.03480469 47.1234375 -9.06960937 46.246875 -9.10546875 45.34375 C-9.13253906 44.4053125 -9.15960938 43.466875 -9.1875 42.5 C-9.22230469 41.5615625 -9.25710937 40.623125 -9.29296875 39.65625 C-8.95363515 36.5796254 -8.04183939 35.27228321 -6 33 C-6.66 33 -7.32 33 -8 33 C-10.28606619 28.42786761 -9.23016856 22.08233247 -9.25 17.0625 C-9.2809375 15.11053711 -9.2809375 15.11053711 -9.3125 13.11914062 C-9.31765625 11.87455078 -9.3228125 10.62996094 -9.328125 9.34765625 C-9.3374707 8.20304932 -9.34681641 7.05844238 -9.35644531 5.87915039 C-9 3 -9 3 -7.67089844 1.12280273 C-5.09998791 -0.60478603 -3.00813919 -0.32001481 0 0 Z M-4 4 C-5.35439668 6.70879335 -5.06501451 9.00933268 -5 12 C-4.01 12.33 -3.02 12.66 -2 13 C-2 10.03 -2 7.06 -2 4 C-2.66 4 -3.32 4 -4 4 Z M-6 17 C-5.67 20.96 -5.34 24.92 -5 29 C-4.67 29 -4.34 29 -4 29 C-3.90912109 28.07767578 -3.90912109 28.07767578 -3.81640625 27.13671875 C-3.69072266 25.92435547 -3.69072266 25.92435547 -3.5625 24.6875 C-3.48128906 23.88699219 -3.40007812 23.08648437 -3.31640625 22.26171875 C-3 20 -3 20 -2 17 C-3.32 17 -4.64 17 -6 17 Z M0 21 C0 24.96 0 28.92 0 33 C0.66 33 1.32 33 2 33 C2 29.04 2 25.08 2 21 C1.34 21 0.68 21 0 21 Z M-2 37 C-2.99 37.66 -3.98 38.32 -5 39 C-5.41666667 42.5 -5.41666667 42.5 -5 46 C-4.34 46.66 -3.68 47.32 -3 48 C-0.21762345 47.59471099 -0.21762345 47.59471099 2 46 C2.04092937 43.66702567 2.04241723 41.33294775 2 39 C0.68 38.34 -0.64 37.68 -2 37 Z " fill="#B01B1A" transform="translate(223,125)"/>
<path d="M0 0 C1.32 0 2.64 0 4 0 C3.67 0.99 3.34 1.98 3 3 C2.90866615 5.75370229 2.87399674 8.48158822 2.88647461 11.23510742 C2.88632858 12.07435257 2.88618256 12.91359772 2.8860321 13.77827454 C2.88672913 16.55403217 2.89451171 19.32972282 2.90234375 22.10546875 C2.90420868 24.02932193 2.90563223 25.95317559 2.90663147 27.87702942 C2.91045076 32.94214182 2.92027606 38.00722558 2.93133545 43.07232666 C2.94336004 49.14879515 2.94795461 55.22527321 2.95378876 61.30175018 C2.9634881 70.53452005 2.98264879 79.76722705 3 89 C22.14 89.33 41.28 89.66 61 90 C61.33 129.27 61.66 168.54 62 209 C61.34 209 60.68 209 60 209 C60 209.66 60 210.32 60 211 C57.77332235 211.67493341 55.54354023 212.33963044 53.3125 213 C51.45044922 213.556875 51.45044922 213.556875 49.55078125 214.125 C46.4989981 214.87703457 44.11101638 215.19034899 41 215 C41.33 214.34 41.66 213.68 42 213 C40.948125 213.16371094 39.89625 213.32742188 38.8125 213.49609375 C32.88719143 214.23675732 26.96150311 214.10688691 21 214.0625 C19.26556641 214.05573242 19.26556641 214.05573242 17.49609375 214.04882812 C14.66400775 214.03712529 11.83203189 214.02072996 9 214 C9 213.34 9 212.68 9 212 C6.03 212 3.06 212 0 212 C-0.33 211.34 -0.66 210.68 -1 210 C-0.34153076 210.06856201 0.31693848 210.13712402 0.99536133 210.20776367 C7.90085994 210.88658458 14.74995871 211.24488264 21.6875 211.3125 C22.62916016 211.34150391 23.57082031 211.37050781 24.54101562 211.40039062 C36.51007208 211.50058234 46.72459383 209.04590103 59 207 C59 169.05 59 131.1 59 92 C39.53 92 20.06 92 0 92 C0 61.64 0 31.28 0 0 Z " fill="#2B0000" transform="translate(133,56)"/>
<path d="M0 0 C0 1.32 0 2.64 0 4 C0.99 4.33 1.98 4.66 3 5 C3 15.89 3 26.78 3 38 C2.34 38 1.68 38 1 38 C1 27.44 1 16.88 1 6 C-0.98 5.67 -2.96 5.34 -5 5 C-6.80404297 4.62681641 -6.80404297 4.62681641 -8.64453125 4.24609375 C-27.25796378 0.52476292 -45.74846131 0.74984877 -64.2109375 5.125 C-68 6 -68 6 -71 6 C-71 43.95 -71 81.9 -71 121 C-71.66 121 -72.32 121 -73 121 C-73 82.39 -73 43.78 -73 4 C-63.43 2.35 -53.86 0.7 -44 -1 C-42.68 -1.66 -41.36 -2.32 -40 -3 C-26.18543523 -5.02378974 -13.45055643 -2.88615179 0 0 Z " fill="#240000" transform="translate(191,40)"/>
<path d="M0 0 C4.24822374 0.47202486 6.19989709 2.96655518 9 6 C9.37125 5.071875 9.37125 5.071875 9.75 4.125 C11.20628639 1.64931313 12.37812506 1.04874998 15 0 C15.25 2.25 15.25 2.25 15 5 C13 7.3125 13 7.3125 11 9 C12.32 9.33 13.64 9.66 15 10 C15 11.65 15 13.3 15 15 C13.35 15.33 11.7 15.66 10 16 C10.66 16 11.32 16 12 16 C12.99 16 13.98 16 15 16 C15 17.65 15 19.3 15 21 C14.01 21.33 13.02 21.66 12 22 C11.74969023 24.41619823 11.74969023 24.41619823 12 27 C12.99 27.66 13.98 28.32 15 29 C15.3984375 30.875 15.3984375 30.875 15.375 33 C15.38273438 33.70125 15.39046875 34.4025 15.3984375 35.125 C15 37 15 37 12 39 C11.5 42 11.5 42 12 45 C12.99 45.66 13.98 46.32 15 47 C14.505 49.475 14.505 49.475 14 52 C12.22566188 51.06915029 10.45564851 50.13005387 8.6875 49.1875 C7.70136719 48.66542969 6.71523437 48.14335938 5.69921875 47.60546875 C1.4499003 45.07801595 1.4499003 45.07801595 0 43 C0.05859375 40.984375 0.05859375 40.984375 1 39 C2.84765625 37.515625 2.84765625 37.515625 5.0625 36.25 C5.79597656 35.82203125 6.52945313 35.3940625 7.28515625 34.953125 C7.85105469 34.63859375 8.41695312 34.3240625 9 34 C6.03 33.67 3.06 33.34 0 33 C-0.05398987 30.72942623 -0.09278742 28.45848712 -0.125 26.1875 C-0.14820313 24.92292969 -0.17140625 23.65835938 -0.1953125 22.35546875 C0 19 0 19 2 16 C1.34 15.67 0.68 15.34 0 15 C0 13.35 0 11.7 0 10 C0.99 9.67 1.98 9.34 3 9 C2.505 8.2575 2.01 7.515 1.5 6.75 C0 4 0 4 0 0 Z M4 20 C4 22.64 4 25.28 4 28 C4.99 28 5.98 28 7 28 C7 25.36 7 22.72 7 20 C6.01 20 5.02 20 4 20 Z " fill="#BA1A19" transform="translate(214,74)"/>
<path d="M0 0 C0.33 0 0.66 0 1 0 C1 37.62 1 75.24 1 114 C20.8 114 40.6 114 61 114 C62.08619852 118.34479409 62.09111302 122.28249858 62.02172852 126.71582031 C62.01212097 127.59422577 62.00251343 128.47263123 61.99261475 129.37765503 C61.95966288 132.2778942 61.91931594 135.17798095 61.87890625 138.078125 C61.85460141 140.09022486 61.83075804 142.10233034 61.80735779 144.11444092 C61.74455308 149.40810556 61.67547612 154.70167055 61.60510254 159.99523926 C61.53438652 165.39782171 61.4695891 170.80047476 61.40429688 176.203125 C61.27533108 186.80216093 61.13974043 197.40110103 61 208 C58.44897663 208.49651636 55.89718238 208.98824397 53.34472656 209.47729492 C52.26936142 209.68735798 52.26936142 209.68735798 51.17227173 209.90166473 C45.66462622 210.95126055 40.36299894 211.43905613 34.75 211.3125 C33.9137207 211.30412109 33.07744141 211.29574219 32.21582031 211.28710938 C25.69299941 211.16113755 19.37024635 210.45013738 13 209 C13 208.34 13 207.68 13 207 C13.61101562 207.0721875 14.22203125 207.144375 14.8515625 207.21875 C21.90991276 207.93452636 28.90889593 208.11054065 36 208.125 C36.90057129 208.12951172 37.80114258 208.13402344 38.72900391 208.13867188 C45.58198002 208.12384662 52.11575272 207.57368727 59 207 C59 176.64 59 146.28 59 115 C39.53 115 20.06 115 0 115 C0 77.05 0 39.1 0 0 Z " fill="#9F1816" transform="translate(120,46)"/>
<path d="M0 0 C2.1640625 0.0234375 2.1640625 0.0234375 4.625 0.375 C5.85089844 0.54128906 5.85089844 0.54128906 7.1015625 0.7109375 C7.72804687 0.80632812 8.35453125 0.90171875 9 1 C9 1.33 9 1.66 9 2 C6.69 2 4.38 2 2 2 C2 3.65 2 5.3 2 7 C5.63 7 9.26 7 13 7 C13 8.32 13 9.64 13 11 C9.7 11.33 6.4 11.66 3 12 C2.67 13.32 2.34 14.64 2 16 C3.258125 16.103125 4.51625 16.20625 5.8125 16.3125 C8.31559921 16.51767207 9.67597569 16.77063448 11.73828125 18.23046875 C13.41420123 20.5809076 13.40059155 22.13374695 13.375 25 C13.38273438 25.86625 13.39046875 26.7325 13.3984375 27.625 C13 30 13 30 11.86328125 31.80078125 C9.15097111 33.54643998 7.00114086 33.29035938 3.8125 33.1875 C2.72582031 33.16042969 1.63914063 33.13335937 0.51953125 33.10546875 C-0.72763672 33.05326172 -0.72763672 33.05326172 -2 33 C-2 31.68 -2 30.36 -2 29 C1.3 28.67 4.6 28.34 8 28 C8 26.02 8 24.04 8 22 C4.7 21.67 1.4 21.34 -2 21 C-2.05378021 17.87477228 -2.09356575 14.7504629 -2.125 11.625 C-2.14175781 10.73554688 -2.15851563 9.84609375 -2.17578125 8.9296875 C-2.18222656 8.07890625 -2.18867188 7.228125 -2.1953125 6.3515625 C-2.20578613 5.56604004 -2.21625977 4.78051758 -2.22705078 3.97119141 C-2 2 -2 2 0 0 Z " fill="#AD1C1A" transform="translate(216,175)"/>
<path d="M0 0 C19.47 0 38.94 0 59 0 C59 30.36 59 60.72 59 92 C50.99256369 93.33457272 43.97218862 94.32987879 36 94.25 C34.5776001 94.24419922 34.5776001 94.24419922 33.12646484 94.23828125 C26.19176064 94.15282879 19.79209096 93.46856021 13 92 C13 84.74 13 77.48 13 70 C13.33 70 13.66 70 14 70 C14 76.93 14 83.86 14 91 C18.75640658 90.96061829 18.75640658 90.96061829 23.51269531 90.90991211 C26.85332091 90.89598535 29.7965759 91.06717447 33 92 C37.31447171 92.15688988 40.72375458 91.85524908 45 91 C49.29 91 53.58 91 58 91 C58 61.3 58 31.6 58 1 C38.86 1 19.72 1 0 1 C0 0.67 0 0.34 0 0 Z " fill="#290000" transform="translate(120,161)"/>
<path d="M0 0 C4.62 0 9.24 0 14 0 C14 0.33 14 0.66 14 1 C9.71 1 5.42 1 1 1 C1 11.56 1 22.12 1 33 C3.97 33.33 6.94 33.66 10 34 C11.33333333 35 12.66666667 36 14 37 C16.98644072 37.55865237 19.9695943 37.81221845 23 38 C23 38.66 23 39.32 23 40 C26.95853301 39.85930243 30.91677109 39.71148952 34.875 39.5625 C35.98359375 39.52318359 37.0921875 39.48386719 38.234375 39.44335938 C44.8565699 39.19015781 51.41596045 38.75898051 58 38 C53.18693369 43.32530386 45.07029753 42.71507917 38.265625 43.19140625 C26.26479233 43.47092875 13.26954064 42.24731431 2 38 C2 37.01 2 36.02 2 35 C1.01 34.34 0.02 33.68 -1 33 C-1.19574173 30.43787716 -1.20808769 28.1356004 -1.07421875 25.5859375 C-1.04777786 24.85629791 -1.02133698 24.12665833 -0.99409485 23.37490845 C-0.90620882 21.04078428 -0.79710837 18.70819531 -0.6875 16.375 C-0.62425363 14.79432613 -0.56238715 13.21359639 -0.50195312 11.6328125 C-0.35064938 7.75437837 -0.18031236 3.87718941 0 0 Z " fill="#040002" transform="translate(119,230)"/>
<path d="M0 0 C4.24822374 0.47202486 6.19989709 2.96655518 9 6 C9.37125 5.071875 9.37125 5.071875 9.75 4.125 C11.20628639 1.64931313 12.37812506 1.04874998 15 0 C15.25 2.25 15.25 2.25 15 5 C13 7.3125 13 7.3125 11 9 C12.32 9.33 13.64 9.66 15 10 C15 11.65 15 13.3 15 15 C13.35 15.33 11.7 15.66 10 16 C10 16.66 10 17.32 10 18 C9.01 17.67 8.02 17.34 7 17 C7 16.01 7 15.02 7 14 C6.01 14 5.02 14 4 14 C3.3121764 16.35367713 3.3121764 16.35367713 3 19 C3.66 19.99 4.32 20.98 5 22 C4.75 25.125 4.75 25.125 4 28 C3.34 28.33 2.68 28.66 2 29 C2 29.66 2 30.32 2 31 C4.31 31.33 6.62 31.66 9 32 C9 32.33 9 32.66 9 33 C6.03 33 3.06 33 0 33 C-0.05398987 30.72942623 -0.09278742 28.45848712 -0.125 26.1875 C-0.14820313 24.92292969 -0.17140625 23.65835938 -0.1953125 22.35546875 C0 19 0 19 2 16 C1.34 15.67 0.68 15.34 0 15 C0 13.35 0 11.7 0 10 C0.99 9.67 1.98 9.34 3 9 C2.505 8.2575 2.01 7.515 1.5 6.75 C0 4 0 4 0 0 Z " fill="#BA2020" transform="translate(214,74)"/>
<path d="M0 0 C0.99 0 1.98 0 3 0 C3 10.56 3 21.12 3 32 C-1.29 32 -5.58 32 -10 32 C-10 24.74 -10 17.48 -10 10 C-15.51557879 9.38715791 -20.72193791 8.85626204 -26.22265625 8.68359375 C-27.50205078 8.64169922 -28.78144531 8.59980469 -30.09960938 8.55664062 C-31.40736328 8.51732422 -32.71511719 8.47800781 -34.0625 8.4375 C-35.41863016 8.39420372 -36.77475011 8.35058634 -38.13085938 8.30664062 C-41.42048671 8.2012789 -44.71018059 8.09915048 -48 8 C-44.87921795 6.18134981 -42.59609139 5.74373982 -39 5.734375 C-37.55282593 5.72857422 -37.55282593 5.72857422 -36.07641602 5.72265625 C-34.55359009 5.73619141 -34.55359009 5.73619141 -33 5.75 C-31.96866943 5.75386719 -30.93733887 5.75773437 -29.87475586 5.76171875 C-22.73669473 5.84273718 -15.96126867 6.32330733 -9 8 C-8.11360611 10.65918166 -7.82010975 12.48064641 -7.68359375 15.23046875 C-7.64169922 16.03291016 -7.59980469 16.83535156 -7.55664062 17.66210938 C-7.51732422 18.49548828 -7.47800781 19.32886719 -7.4375 20.1875 C-7.39431641 21.03248047 -7.35113281 21.87746094 -7.30664062 22.74804688 C-7.20068482 24.83184433 -7.0998498 26.91590103 -7 29 C-4.36 29.33 -1.72 29.66 1 30 C0.67 20.1 0.34 10.2 0 0 Z " fill="#9C1817" transform="translate(189,46)"/>
<path d="M0 0 C0.1875 2.375 0.1875 2.375 0 5 C-0.99 5.66 -1.98 6.32 -3 7 C-3.73343428 10.06556598 -3.73343428 10.06556598 -4 13 C-2.68 13.66 -1.36 14.32 0 15 C0 16.32 0 17.64 0 19 C-6.16529701 18.68383092 -10.17268433 15.50784939 -15 12 C-14.8359375 9.73828125 -14.8359375 9.73828125 -14 7 C-11.6015625 4.98046875 -11.6015625 4.98046875 -8.625 3.1875 C-7.64789063 2.58292969 -6.67078125 1.97835937 -5.6640625 1.35546875 C-3 0 -3 0 0 0 Z " fill="#C41A18" transform="translate(229,208)"/>
<path d="M0 0 C0.99 0 1.98 0 3 0 C3 10.23 3 20.46 3 31 C-0.96 31 -4.92 31 -9 31 C-9 24.4 -9 17.8 -9 11 C-8.67 11 -8.34 11 -8 11 C-7.67 16.94 -7.34 22.88 -7 29 C-4.36 29.33 -1.72 29.66 1 30 C0.67 20.1 0.34 10.2 0 0 Z " fill="#BD1E1C" transform="translate(189,46)"/>
<path d="M0 0 C4.62 0 9.24 0 14 0 C14 0.33 14 0.66 14 1 C9.71 1 5.42 1 1 1 C1 11.56 1 22.12 1 33 C3.97 33.33 6.94 33.66 10 34 C6 36 6 36 2.8125 35.1875 C0 34 0 34 -1 33 C-1.01694275 30.54939255 -0.97122182 28.13079017 -0.87890625 25.68359375 C-0.85529526 24.95253922 -0.83168427 24.22148468 -0.80735779 23.46827698 C-0.73054916 21.12449544 -0.64659969 18.78103018 -0.5625 16.4375 C-0.50929648 14.85222922 -0.45655598 13.26694282 -0.40429688 11.68164062 C-0.27491096 7.78755868 -0.13911869 3.8937459 0 0 Z " fill="#380000" transform="translate(119,230)"/>
<path d="M0 0 C0.99 0 1.98 0 3 0 C3.33 0.99 3.66 1.98 4 3 C7.465 2.505 7.465 2.505 11 2 C11 3.65 11 5.3 11 7 C5.25 10 5.25 10 3 10 C3 8.68 3 7.36 3 6 C1.35 6 -0.3 6 -2 6 C-1.34 4.02 -0.68 2.04 0 0 Z " fill="#B71C1B" transform="translate(218,88)"/>
<path d="M0 0 C0.99 0.495 0.99 0.495 2 1 C1.67 1.99 1.34 2.98 1 4 C1.99 4 2.98 4 4 4 C3.79375 4.763125 3.5875 5.52625 3.375 6.3125 C2.66608797 9.21885944 2.66608797 9.21885944 5 12 C4.75 15.125 4.75 15.125 4 18 C3.34 18.33 2.68 18.66 2 19 C2 19.66 2 20.32 2 21 C4.31 21.33 6.62 21.66 9 22 C9 22.33 9 22.66 9 23 C6.03 23 3.06 23 0 23 C-0.05398987 20.72942623 -0.09278742 18.45848712 -0.125 16.1875 C-0.14820313 14.92292969 -0.17140625 13.65835938 -0.1953125 12.35546875 C0 9 0 9 2 6 C1.34 5.67 0.68 5.34 0 5 C0 3.35 0 1.7 0 0 Z " fill="#A02324" transform="translate(214,84)"/>
<path d="M0 0 C0.1875 2.375 0.1875 2.375 0 5 C-0.99 5.66 -1.98 6.32 -3 7 C-3.99 8.485 -3.99 8.485 -5 10 C-5.33 9.01 -5.66 8.02 -6 7 C-8.01508358 6.26676204 -8.01508358 6.26676204 -10 6 C-10 6.66 -10 7.32 -10 8 C-10.99 8 -11.98 8 -13 8 C-12.67 9.65 -12.34 11.3 -12 13 C-12.99 12.67 -13.98 12.34 -15 12 C-14.8359375 9.73828125 -14.8359375 9.73828125 -14 7 C-11.6015625 4.98046875 -11.6015625 4.98046875 -8.625 3.1875 C-7.64789063 2.58292969 -6.67078125 1.97835937 -5.6640625 1.35546875 C-3 0 -3 0 0 0 Z " fill="#A31919" transform="translate(229,208)"/>
<path d="M0 0 C0.66 0 1.32 0 2 0 C2.33 2.64 2.66 5.28 3 8 C4.98 8.66 6.96 9.32 9 10 C9 10.99 9 11.98 9 13 C2.375 13.25 2.375 13.25 -1 11 C-1.328125 8.90625 -1.328125 8.90625 -1.25 6.5 C-1.23453125 5.7059375 -1.2190625 4.911875 -1.203125 4.09375 C-1 2 -1 2 0 0 Z " fill="#BC1814" transform="translate(216,163)"/>
<path d="M0 0 C2.1640625 0.0234375 2.1640625 0.0234375 4.625 0.375 C5.85089844 0.54128906 5.85089844 0.54128906 7.1015625 0.7109375 C7.72804687 0.80632812 8.35453125 0.90171875 9 1 C9 1.33 9 1.66 9 2 C6.69 2 4.38 2 2 2 C2 3.65 2 5.3 2 7 C1.67 5.68 1.34 4.36 1 3 C0.34 3 -0.32 3 -1 3 C-1 6.63 -1 10.26 -1 14 C-0.34 14 0.32 14 1 14 C1.33 13.34 1.66 12.68 2 12 C2 13.32 2 14.64 2 16 C3.65 16 5.3 16 7 16 C7 16.33 7 16.66 7 17 C0.84765625 17.09765625 0.84765625 17.09765625 -1 17 C-2.93341947 15.06658053 -2.17449133 11.62520879 -2.1875 9.0625 C-2.20167969 7.79535156 -2.21585938 6.52820313 -2.23046875 5.22265625 C-2 2 -2 2 0 0 Z " fill="#911715" transform="translate(216,175)"/>
<path d="M0 0 C0.66 0.33 1.32 0.66 2 1 C2.08121924 2.60332791 2.13929134 4.20784026 2.1875 5.8125 C2.22230469 6.70582031 2.25710937 7.59914062 2.29296875 8.51953125 C2 11 2 11 0.875 12.8125 C-1.84718517 14.53655061 -4.00052205 14.29030574 -7.1875 14.1875 C-8.27417969 14.16042969 -9.36085937 14.13335937 -10.48046875 14.10546875 C-11.72763672 14.05326172 -11.72763672 14.05326172 -13 14 C-13 12.68 -13 11.36 -13 10 C-10.69 10 -8.38 10 -6 10 C-7.32 10.33 -8.64 10.66 -10 11 C-10 11.66 -10 12.32 -10 13 C-6.7 12.67 -3.4 12.34 0 12 C0 8.04 0 4.08 0 0 Z " fill="#971D1D" transform="translate(227,194)"/>
<path d="M0 0 C1.98 0.66 3.96 1.32 6 2 C6.33 1.34 6.66 0.68 7 0 C8.32 0.66 9.64 1.32 11 2 C11 3.32 11 4.64 11 6 C5.64951939 5.62671065 3.49087093 4.0042343 0 0 Z " fill="#A01F20" transform="translate(218,221)"/>
<path d="M0 0 C0.66 0.33 1.32 0.66 2 1 C1.484375 1.928125 0.96875 2.85625 0.4375 3.8125 C-1.40096246 6.92757947 -1.40096246 6.92757947 0 10 C-1.9375 9.25 -1.9375 9.25 -4 8 C-4.75 5.875 -4.75 5.875 -5 4 C-3.35 2.68 -1.7 1.36 0 0 Z " fill="#A11717" transform="translate(219,110)"/>
<path d="M0 0 C4.455 0.99 4.455 0.99 9 2 C9 2.66 9 3.32 9 4 C6.03 4 3.06 4 0 4 C0 2.68 0 1.36 0 0 Z " fill="#C21D1C" transform="translate(216,102)"/>
<path d="M0 0 C0.25 2.3125 0.25 2.3125 0 5 C-2 6.8125 -2 6.8125 -4 8 C-4.66 6.68 -5.32 5.36 -6 4 C-2.25 0 -2.25 0 0 0 Z " fill="#971F1B" transform="translate(229,74)"/>
<path d="M0 0 C0.33 0.99 0.66 1.98 1 3 C1.99 3.33 2.98 3.66 4 4 C3.01 4.33 2.02 4.66 1 5 C0.34 4.67 -0.32 4.34 -1 4 C-1.33 7.3 -1.66 10.6 -2 14 C-2.33 14 -2.66 14 -3 14 C-3.08114106 12.22992286 -3.13925505 10.45877902 -3.1875 8.6875 C-3.22230469 7.70136719 -3.25710937 6.71523437 -3.29296875 5.69921875 C-3 3 -3 3 -1.48828125 1.14453125 C-0.99714844 0.76683594 -0.50601563 0.38914063 0 0 Z " fill="#901E1A" transform="translate(217,159)"/>
<path d="M0 0 C4.62609198 -0.3227506 7.28026121 0.15549386 11 3 C11 3.66 11 4.32 11 5 C9.54096742 4.69078116 8.08279278 4.37751201 6.625 4.0625 C5.81289062 3.88847656 5.00078125 3.71445313 4.1640625 3.53515625 C2 3 2 3 0 2 C0 1.34 0 0.68 0 0 Z " fill="#B4110D" transform="translate(217,157)"/>
<path d="M0 0 C0.33 0 0.66 0 1 0 C1.33 2.31 1.66 4.62 2 7 C6.455 7.99 6.455 7.99 11 9 C7 11 7 11 3.8125 10.1875 C1 9 1 9 0 8 C-0.14115161 5.32941149 -0.04247107 2.67567762 0 0 Z " fill="#2C0302" transform="translate(118,255)"/>
<path d="M0 0 C1.875 0.25 1.875 0.25 4 1 C5.25 3.0625 5.25 3.0625 6 5 C5.34 5 4.68 5 4 5 C3.34 5.66 2.68 6.32 2 7 C0 4 0 4 0 0 Z " fill="#90211F" transform="translate(214,74)"/>
<path d="M0 0 C2 1.375 2 1.375 4 3 C4 3.66 4 4.32 4 5 C1.69 5.33 -0.62 5.66 -3 6 C-2.67 4.68 -2.34 3.36 -2 2 C-1.34 2 -0.68 2 0 2 C0 1.34 0 0.68 0 0 Z " fill="#B5120E" transform="translate(223,139)"/>
<path d="M0 0 C1.32 0.66 2.64 1.32 4 2 C3.67 3.65 3.34 5.3 3 7 C1.35 6.01 -0.3 5.02 -2 4 C-1.34 3.67 -0.68 3.34 0 3 C0.66 3.33 1.32 3.66 2 4 C2 3.34 2 2.68 2 2 C1.34 2 0.68 2 0 2 C0 1.34 0 0.68 0 0 Z " fill="#9D1A1B" transform="translate(225,119)"/>
<path d="M0 0 C0.66 0.99 1.32 1.98 2 3 C-0.31 3.66 -2.62 4.32 -5 5 C-5 3.68 -5 2.36 -5 1 C-3.35 0.67 -1.7 0.34 0 0 Z " fill="#BD130E" transform="translate(226,93)"/>
<path d="M0 0 C0.33 0 0.66 0 1 0 C1.16873478 1.43725871 1.33490737 2.87481838 1.5 4.3125 C1.5928125 5.11300781 1.685625 5.91351563 1.78125 6.73828125 C2 9 2 9 2 12 C1.34 12 0.68 12 0 12 C0 11.01 0 10.02 0 9 C-0.66 8.67 -1.32 8.34 -2 8 C-1.67 7.67 -1.34 7.34 -1 7 C-0.63239269 4.67182036 -0.29758419 2.3381615 0 0 Z " fill="#A51C20" transform="translate(225,164)"/>
<path d="M0 0 C1.98 0.66 3.96 1.32 6 2 C4.6875 3.5 4.6875 3.5 3 5 C2.01 5 1.02 5 0 5 C0 3.35 0 1.7 0 0 Z " fill="#B7231E" transform="translate(217,78)"/>
<path d="M0 0 C0.66 0 1.32 0 2 0 C2 1.98 2 3.96 2 6 C1.01 6.33 0.02 6.66 -1 7 C-0.67 4.69 -0.34 2.38 0 0 Z " fill="#BC221E" transform="translate(216,163)"/>
<path d="M0 0 C0.66 0.33 1.32 0.66 2 1 C1.67 3.64 1.34 6.28 1 9 C0.34 8.67 -0.32 8.34 -1 8 C-0.67 5.36 -0.34 2.72 0 0 Z " fill="#BB2121" transform="translate(216,128)"/>
<path d="" fill="#000000" transform="translate(0,0)"/>
<path d="" fill="#000000" transform="translate(0,0)"/>
</svg>
